<?xml version="1.0" encoding="UTF-8" standalone="no"?>
<svg
   width="30"
   height="23"
   viewBox="0 0 30 23"
   fill="none"
   version="1.1"
   id="svg900"
   sodipodi:docname="logoIcon.svg"
   inkscape:version="1.1 (c4e8f9e, 2021-05-24)"
   xmlns:inkscape="http://www.inkscape.org/namespaces/inkscape"
   xmlns:sodipodi="http://sodipodi.sourceforge.net/DTD/sodipodi-0.dtd"
   xmlns="http://www.w3.org/2000/svg"
   xmlns:svg="http://www.w3.org/2000/svg">
  <defs
     id="defs904" />
  <sodipodi:namedview
     id="namedview902"
     pagecolor="#828282"
     bordercolor="#666666"
     borderopacity="1.0"
     inkscape:pageshadow="2"
     inkscape:pageopacity="0"
     inkscape:pagecheckerboard="0"
     showgrid="false"
     inkscape:zoom="15.854233"
     inkscape:cx="15.737122"
     inkscape:cy="13.277211"
     inkscape:window-width="1399"
     inkscape:window-height="1003"
     inkscape:window-x="482"
     inkscape:window-y="70"
     inkscape:window-maximized="0"
     inkscape:current-layer="svg900" />
  <g
     id="g1207"
     style="fill:#1A1A1A"
     transform="matrix(0.09510337,0,0,0.09510337,-20.779136,-16.856001)">
    <g
       id="g1015"
       style="fill:#1A1A1A">
      <path
         class="cls-1"
         d="m 421.93,261.07 32.26,34.46 h 35.55 l 32.26,-34.46 1.15,-12.02 10.03,-12.79 v -19.28 l -47.81,47.81 -1.15,9.23 -12.23,11.93 -0.02,0.1 -0.02,-0.1 -12.23,-11.93 -1.15,-9.23 -47.59,-46.32 v 19.28 l 9.8,11.31 1.15,12.02 z m 66.9,15.05 1.15,-9.24 36.89,-37.67 -34.11,40.45 -2.07,11.09 -14.08,7.3 12.23,-11.93 z m -34.86,-9.24 1.15,9.24 12.23,11.93 -14.08,-7.3 -2.07,-11.09 -34.11,-40.45 36.89,37.67 z"
         id="path1011"
         style="fill:#1A1A1A" />
      <path
         class="cls-1"
         d="m 420.79,342.01 -7.45,9.18 v 19.28 l 45.23,-44.2 1.15,-9.23 12.23,-11.93 0.02,-0.1 0.02,0.1 12.23,11.93 1.15,9.23 44.75,44.2 v -19.28 l -6.97,-9.18 -1.15,-12.02 -32.26,-34.46 h -35.55 l -32.26,34.46 -1.15,12.02 z"
         id="path1013"
         style="fill:#1A1A1A" />
    </g>
    <g
       id="g1023"
       style="fill:#1A1A1A">
      <path
         class="cls-1"
         d="m 218.5,227.08 h 29.11 l 12.47,65.54 c 1.98,10.1 4.36,27.13 5.74,38.61 h 0.79 c 1.39,-11.48 3.76,-28.51 5.74,-38.61 l 12.47,-65.54 h 29.11 l -32.87,138.6 h -29.7 l -32.87,-138.6 z"
         id="path1019"
         style="fill:#1A1A1A" />
      <path
         class="cls-1"
         d="M 400.66,253.81 H 373.54 V 365.68 H 344.63 V 253.81 H 317.5 v -26.73 h 83.16 z"
         id="path1021"
         style="fill:#1A1A1A" />
    </g>
  </g>
</svg>
